<svg xmlns="http://www.w3.org/2000/svg" xmlns:xlink="http://www.w3.org/1999/xlink" viewBox="0 0 238.34 60.59"><defs><style>.cls-1{fill:#2b3b47;}.cls-2{fill:url(#linear-gradient);}</style><linearGradient id="linear-gradient" x1="42.31" y1="66.54" x2="163.3" y2="-62.45" gradientUnits="userSpaceOnUse"><stop offset="0" stop-color="#29abe2"/><stop offset="1" stop-color="aqua"/></linearGradient></defs><title>logo-icon_1</title><g id="Layer_2" data-name="Layer 2"><g id="Layer_1-2" data-name="Layer 1"><path class="cls-1" d="M30.22,3.37V39.82a3.34,3.34,0,1,1-6.68,0V38.68a12.57,12.57,0,0,1-9.86,4.9C5.79,43.58,0,37.6,0,27.48c0-9.92,5.73-16.16,13.68-16.16a12.32,12.32,0,0,1,9.86,5v-13a3.34,3.34,0,1,1,6.68,0ZM23.54,33.59V21.38a10.09,10.09,0,0,0-8-4.14c-5.28,0-8.65,4.26-8.65,10.24s3.37,10.18,8.65,10.18A10,10,0,0,0,23.54,33.59Z"/><path class="cls-1" d="M56,14.7c0,1.53-1.14,2.86-3.43,3.18s-5.66,1.84-7,4V39.82a3.34,3.34,0,1,1-6.68,0V15.08a3.34,3.34,0,1,1,6.68,0V16.6A13.69,13.69,0,0,1,51.46,12a5.28,5.28,0,0,1,1.78-.38C55.15,11.58,56,13,56,14.7Z"/><path class="cls-1" d="M59,27.42c0-8.78,6-16.09,15.78-16.09s15.84,7.32,15.84,16.09-6,16.16-15.84,16.16S59,36.26,59,27.42Zm24.68,0c0-5.41-3.18-10.18-8.91-10.18S66,22,66,27.42s3.18,10.24,8.84,10.24S83.71,32.89,83.71,27.42Z"/><path class="cls-1" d="M127.54,27.42c0,10.11-5.66,16.16-13.61,16.16a12.07,12.07,0,0,1-9.86-5v13a3.34,3.34,0,1,1-6.68,0V15.08a3.34,3.34,0,1,1,6.68,0v1.21a12.26,12.26,0,0,1,9.86-5C121.88,11.32,127.54,17.3,127.54,27.42Zm-6.93,0c0-5.92-3.37-10.18-8.65-10.18a10,10,0,0,0-7.89,4.14V33.52A10.15,10.15,0,0,0,112,37.66C117.23,37.66,120.6,33.4,120.6,27.42Z"/><path class="cls-1" d="M134.28,39.82V3.37a3.34,3.34,0,1,1,6.68,0V39.82a3.34,3.34,0,1,1-6.68,0Z"/><path class="cls-1" d="M163.28,11.32c9.22,0,15.14,7.06,15.14,15.2,0,2-1.4,3.12-3.94,3.12H154.7c.51,4.64,4,8.46,9.8,8.46a13.85,13.85,0,0,0,7-2,2.64,2.64,0,0,1,1.46-.38,2.69,2.69,0,0,1,2.67,2.67,2.74,2.74,0,0,1-1.21,2.23,19,19,0,0,1-10.62,3c-9.22,0-16.09-6.43-16.09-16.16C147.7,18.51,154.19,11.32,163.28,11.32Zm-8.65,13.61h17.3a8.22,8.22,0,0,0-8.65-8.14C157.56,16.79,155,21.18,154.63,24.94Z"/><path class="cls-1" d="M182.94,38a2.85,2.85,0,0,1,2.86-2.86,3.3,3.3,0,0,1,1.59.45,15.92,15.92,0,0,0,8.46,2.74c4,0,6-1.46,6-3.75,0-2.67-3.24-3.63-7-4.45-5.28-1.15-11.58-2.54-11.58-9.42,0-5,4.33-9.35,12.09-9.35a17.89,17.89,0,0,1,10.24,3,2.74,2.74,0,0,1,1.21,2.23,2.69,2.69,0,0,1-2.67,2.67,2.83,2.83,0,0,1-1.46-.45,13.5,13.5,0,0,0-7.25-2.1c-3.5,0-5.73,1.27-5.73,3.44,0,2.35,3.05,3.18,6.68,4,5.34,1.14,11.9,2.67,11.9,9.92,0,5.41-4.52,9.54-12.79,9.54a20,20,0,0,1-11.32-3.24A2.87,2.87,0,0,1,182.94,38Z"/><path class="cls-1" d="M213,38a2.85,2.85,0,0,1,2.86-2.86,3.3,3.3,0,0,1,1.59.45,15.92,15.92,0,0,0,8.46,2.74c4,0,6-1.46,6-3.75,0-2.67-3.24-3.63-7-4.45-5.28-1.15-11.58-2.54-11.58-9.42,0-5,4.33-9.35,12.09-9.35a17.89,17.89,0,0,1,10.24,3,2.74,2.74,0,0,1,1.21,2.23,2.69,2.69,0,0,1-2.67,2.67,2.84,2.84,0,0,1-1.46-.45,13.5,13.5,0,0,0-7.25-2.1c-3.5,0-5.73,1.27-5.73,3.44,0,2.35,3.05,3.18,6.68,4,5.34,1.14,11.9,2.67,11.9,9.92,0,5.41-4.52,9.54-12.79,9.54a20,20,0,0,1-11.32-3.24A2.87,2.87,0,0,1,213,38Z"/><path class="cls-2" d="M75.24,9.88c-9.61,0-17.72,7.64-17.72,16.68,0,8,5.75,16.89,13.71,29.23l2.59,4a1.67,1.67,0,0,0,2.83,0l2.6-4C87.2,43.44,93,34.53,93,26.56,93,17.52,84.84,9.88,75.24,9.88Zm0,27.6a5.86,5.86,0,0,1-5.93-5.64c0-2.52,1.69-5.14,4-8.77l.74-1.13a1.36,1.36,0,0,1,1.17-.64,1.39,1.39,0,0,1,1.17.63l.73,1.14c2.34,3.63,4,6.25,4,8.77A5.87,5.87,0,0,1,75.24,37.48Z"/></g></g></svg>